<?xml version="1.0" standalone="no"?>
<!DOCTYPE svg PUBLIC "-//W3C//DTD SVG 20010904//EN"
 "http://www.w3.org/TR/2001/REC-SVG-20010904/DTD/svg10.dtd">
<svg version="1.0" xmlns="http://www.w3.org/2000/svg"
 width="688.000000pt" height="688.000000pt" viewBox="0 0 688.000000 688.000000"
 preserveAspectRatio="xMidYMid meet">
<metadata>
Created by potrace 1.11, written by Peter Selinger 2001-2013
</metadata>
<g transform="translate(0.000000,688.000000) scale(0.100000,-0.100000)"
fill="#000000" stroke="none">
<path d="M176 3753 c1 -1715 2 -3123 3 -3129 1 -13 -6 -11 451 -139 465 -131
822 -232 1325 -374 367 -104 393 -110 435 -100 25 6 52 13 60 17 8 3 18 6 23
7 4 2 8 3 10 5 1 1 10 3 20 5 10 2 26 7 35 11 9 3 28 8 42 10 14 2 26 8 28 14
2 5 7 8 11 5 5 -2 57 9 117 26 60 16 120 32 133 35 13 3 34 10 45 16 12 6 21
10 21 8 0 -4 153 36 185 48 22 8 28 9 46 11 9 0 12 6 8 13 -4 7 -3 8 5 4 13
-9 143 23 137 33 -2 3 8 6 22 7 26 1 172 38 202 51 21 9 27 10 53 12 18 1 19
3 7 12 -12 8 -11 9 5 5 11 -3 61 6 110 20 50 14 109 31 133 38 24 6 40 15 35
20 -4 5 -3 6 4 2 7 -4 47 3 90 14 43 11 85 22 93 24 8 3 27 9 43 15 15 6 39
13 53 15 30 6 133 34 154 43 8 3 17 7 20 8 126 31 140 36 134 47 -5 7 -2 8 7
2 8 -4 23 -7 35 -6 11 2 162 -35 335 -82 444 -119 1007 -270 1119 -300 52 -14
196 -53 320 -86 221 -60 412 -110 417 -110 2 0 3 1408 3 3129 l0 3129 -112 30
c-62 17 -138 38 -168 46 -59 15 -916 245 -1294 346 -127 34 -237 63 -245 65
-9 2 -72 19 -141 38 -235 65 -223 63 -287 42 -32 -10 -62 -20 -68 -21 -11 -2
-110 -29 -160 -44 -37 -11 -104 -29 -127 -35 -9 -2 -65 -18 -125 -35 -118 -35
-115 -34 -158 -44 -16 -4 -37 -10 -45 -13 -8 -3 -21 -7 -28 -9 -14 -3 -99 -27
-173 -50 -25 -8 -57 -17 -70 -20 -13 -3 -31 -7 -39 -9 -8 -2 -21 -4 -28 -4 -7
-1 -11 -5 -8 -10 3 -4 -6 -6 -19 -3 -15 2 -25 0 -25 -7 0 -7 -4 -10 -8 -7 -4
2 -93 -20 -197 -50 -105 -30 -198 -57 -209 -59 -10 -2 -44 -12 -75 -21 -31
-10 -61 -18 -67 -20 -6 -1 -38 -10 -70 -19 -58 -17 -81 -23 -97 -24 -5 -1 -5
-6 -1 -13 4 -7 3 -8 -5 -4 -11 7 -104 -10 -126 -23 -5 -3 -14 -6 -20 -7 -5 -2
-45 -12 -89 -23 l-78 -21 -422 119 c-723 205 -959 272 -1011 286 -27 8 -115
32 -195 55 -80 23 -158 45 -175 50 -16 4 -103 28 -193 54 -89 25 -166 46 -170
46 -4 0 -7 -1403 -6 -3117z m4225 2960 c13 -16 12 -17 -3 -4 -10 7 -18 15 -18
17 0 8 8 3 21 -13z m-681 -309 c0 -8 -19 -13 -24 -6 -3 5 1 9 9 9 8 0 15 -2
15 -3z m-1153 -139 c0 -8 -4 -12 -9 -9 -5 3 -6 10 -3 15 9 13 12 11 12 -6z
m1473 -181 c0 -8 -19 -13 -24 -6 -3 5 1 9 9 9 8 0 15 -2 15 -3z m-1152 -89
c-3 -3 -9 2 -12 12 -6 14 -5 15 5 6 7 -7 10 -15 7 -18z m1466 -73 c3 -5 -1 -9
-9 -9 -8 0 -12 4 -9 9 3 4 7 8 9 8 2 0 6 -4 9 -8z m-1280 -160 c3 -5 -1 -9 -9
-9 -8 0 -12 4 -9 9 3 4 7 8 9 8 2 0 6 -4 9 -8z m6 -318 c0 -8 -19 -13 -24 -6
-3 5 1 9 9 9 8 0 15 -2 15 -3z m1090 -228 c0 -2 -8 -10 -17 -17 -16 -13 -17
-12 -4 4 13 16 21 21 21 13z m184 -94 c3 -5 -1 -9 -9 -9 -8 0 -12 4 -9 9 3 4
7 8 9 8 2 0 6 -4 9 -8z m-1307 -347 c0 -8 -4 -12 -9 -9 -5 3 -6 10 -3 15 9 13
12 11 12 -6z m1118 -134 c3 -5 2 -12 -3 -15 -5 -3 -9 1 -9 9 0 17 3 19 12 6z
m-951 -83 c-3 -4 -9 -8 -15 -8 -5 0 -9 4 -9 8 0 5 7 9 15 9 8 0 12 -4 9 -9z
m1111 -47 c3 -5 2 -12 -3 -15 -5 -3 -9 1 -9 9 0 17 3 19 12 6z m-1440 -50 c3
-5 2 -12 -3 -15 -5 -3 -9 1 -9 9 0 17 3 19 12 6z m642 -276 c0 -8 -4 -12 -9
-9 -5 3 -6 10 -3 15 9 13 12 11 12 -6z m-480 -50 c0 -8 -4 -12 -9 -9 -5 3 -6
10 -3 15 9 13 12 11 12 -6z m-213 -453 c3 -5 -1 -9 -9 -9 -8 0 -12 4 -9 9 3 4
7 8 9 8 2 0 6 -4 9 -8z m47 -89 c13 -16 12 -17 -3 -4 -17 13 -22 21 -14 21 2
0 10 -8 17 -17z m1159 -69 c0 -8 -19 -13 -24 -6 -3 5 1 9 9 9 8 0 15 -2 15 -3z
m314 -162 c3 -5 -1 -9 -9 -9 -8 0 -12 4 -9 9 3 4 7 8 9 8 2 0 6 -4 9 -8z
m-507 -97 c0 -8 -4 -12 -9 -9 -5 3 -6 10 -3 15 9 13 12 11 12 -6z m-562 -164
c3 -5 2 -12 -3 -15 -5 -3 -9 1 -9 9 0 17 3 19 12 6z m-400 -380 c3 -5 2 -12
-3 -15 -5 -3 -9 1 -9 9 0 17 3 19 12 6z m1285 -65 c0 -2 -8 -10 -17 -17 -16
-13 -17 -12 -4 4 13 16 21 21 21 13z m-1125 -65 c3 -5 2 -12 -3 -15 -5 -3 -9
1 -9 9 0 17 3 19 12 6z m1309 -29 c3 -5 -1 -9 -9 -9 -8 0 -12 4 -9 9 3 4 7 8
9 8 2 0 6 -4 9 -8z m-1469 -291 c3 -5 2 -12 -3 -15 -5 -3 -9 1 -9 9 0 17 3 19
12 6z m1155 -27 c0 -8 -19 -13 -24 -6 -3 5 1 9 9 9 8 0 15 -2 15 -3z m-580
-158 c0 -2 -8 -10 -17 -17 -16 -13 -17 -12 -4 4 13 16 21 21 21 13z m894 -4
c3 -5 -1 -9 -9 -9 -8 0 -12 4 -9 9 3 4 7 8 9 8 2 0 6 -4 9 -8z m-1307 -137 c0
-8 -4 -12 -9 -9 -5 3 -6 10 -3 15 9 13 12 11 12 -6z m953 -181 c0 -8 -19 -13
-24 -6 -3 5 1 9 9 9 8 0 15 -2 15 -3z m-1113 -509 c0 -8 -4 -12 -9 -9 -5 3 -6
10 -3 15 9 13 12 11 12 -6z m798 -634 c3 -5 2 -12 -3 -15 -5 -3 -9 1 -9 9 0
17 3 19 12 6z m-960 -270 c3 -5 2 -12 -3 -15 -5 -3 -9 1 -9 9 0 17 3 19 12 6z"/>
</g>
</svg>
