<svg width="654" height="688" viewBox="0 0 654 688" fill="none" xmlns="http://www.w3.org/2000/svg">
<rect width="226" height="625.999" transform="matrix(0.962455 0.27144 0 1 0.485352 0.654541)" fill="#605856"/>
<rect width="226" height="625.999" transform="matrix(0.962455 0.27144 0 1 0.485352 0.654541)" fill="url(#paint0_linear)"/>
<rect width="226" height="626" transform="matrix(0.965926 0.258819 0 1 435.515 0.654541)" fill="#605856"/>
<rect width="226" height="626" transform="matrix(0.965926 0.258819 0 1 435.515 0.654541)" fill="url(#paint1_linear)"/>
<rect width="226" height="626" transform="matrix(0.962455 -0.27144 0 1 218 62)" fill="#605856" fill-opacity="0.9"/>
<g filter="url(#filter0_d)">
<path d="M356.431 258.479L414.225 242.179V246.876L411.048 247.772C408.931 248.37 405.835 250.216 401.762 253.311C397.689 256.406 393.983 260.245 390.643 264.826C387.303 269.407 383.19 276.492 378.302 286.08L338.347 362.729V405.893C338.347 416.473 339.488 422.753 341.769 424.733C344.864 427.415 349.751 427.814 356.431 425.93L361.807 424.414V429.111L291.428 448.96V444.263L297.293 442.609C304.298 440.633 309.267 437.031 312.199 431.803C313.991 428.589 314.888 422.158 314.888 412.51V371.758L269.434 312.467C264.058 305.52 260.392 301.264 258.437 299.7C256.564 298.112 252.613 296.687 246.585 295.425C244.956 295.038 242.594 295.281 239.498 296.154V291.457L310.367 271.47V276.167L306.701 277.201C302.872 278.281 299.329 280.211 296.071 282.992C292.894 285.75 291.305 288.991 291.305 292.715C291.305 295.762 293.79 300.563 298.759 307.117L333.338 352.843L365.839 290.61C370.727 281.276 373.171 274.663 373.171 270.769C373.171 268.4 372.56 266.456 371.338 264.939C370.197 263.398 368.527 262.43 366.328 262.035C364.129 261.555 360.83 261.935 356.431 263.176V258.479Z" fill="white"/>
</g>
<defs>
<filter id="filter0_d" x="235.498" y="242.179" width="182.727" height="214.781" filterUnits="userSpaceOnUse" color-interpolation-filters="sRGB">
<feFlood flood-opacity="0" result="BackgroundImageFix"/>
<feColorMatrix in="SourceAlpha" type="matrix" values="0 0 0 0 0 0 0 0 0 0 0 0 0 0 0 0 0 0 127 0"/>
<feOffset dy="4"/>
<feGaussianBlur stdDeviation="2"/>
<feColorMatrix type="matrix" values="0 0 0 0 0 0 0 0 0 0 0 0 0 0 0 0 0 0 0.25 0"/>
<feBlend mode="normal" in2="BackgroundImageFix" result="effect1_dropShadow"/>
<feBlend mode="normal" in="SourceGraphic" in2="effect1_dropShadow" result="shape"/>
</filter>
<linearGradient id="paint0_linear" x1="113" y1="0" x2="113" y2="625.999" gradientUnits="userSpaceOnUse">
<stop offset="0.9999" stop-opacity="0.12"/>
<stop offset="1" stop-color="white" stop-opacity="0"/>
</linearGradient>
<linearGradient id="paint1_linear" x1="113" y1="0" x2="113" y2="626" gradientUnits="userSpaceOnUse">
<stop offset="0.9999" stop-opacity="0.12"/>
<stop offset="1" stop-color="white" stop-opacity="0"/>
</linearGradient>
</defs>
</svg>
